<?xml version="1.0" encoding="UTF-8" standalone="no"?>
<!DOCTYPE svg PUBLIC "-//W3C//DTD SVG 1.1//EN"
 "http://www.w3.org/Graphics/SVG/1.1/DTD/svg11.dtd">
<!-- Generated by graphviz version 2.50.0 (20211204.2007)
 -->
<!-- Title: G Pages: 1 -->
<svg width="292pt" height="417pt"
 viewBox="0.00 0.00 291.50 417.00" xmlns="http://www.w3.org/2000/svg" xmlns:xlink="http://www.w3.org/1999/xlink">
<g id="graph0" class="graph" transform="scale(1 1) rotate(0) translate(4 413)">
<title>G</title>
<polygon fill="#ffffff" stroke="transparent" points="-4,4 -4,-413 287.5,-413 287.5,4 -4,4"/>
<!-- Node0x60000209c060 -->
<g id="node1" class="node">
<title>Node0x60000209c060</title>
<polygon fill="#ffffff" stroke="#000000" stroke-width="2" points="113,-372.5 113,-408.5 167,-408.5 167,-372.5 113,-372.5"/>
<text text-anchor="middle" x="140" y="-388.6" font-family="Arial" font-size="8.00" fill="#000000">животное</text>
</g>
<!-- Node0x60000209c080 -->
<g id="node2" class="node">
<title>Node0x60000209c080</title>
<polygon fill="#ffffff" stroke="#000000" stroke-width="2" points="76,-248.5 76,-284.5 130,-284.5 130,-248.5 76,-248.5"/>
<text text-anchor="middle" x="103" y="-264.6" font-family="Arial" font-size="8.00" fill="#000000">кошка</text>
</g>
<!-- Node0x60000209c060&#45;&gt;Node0x60000209c080 -->
<g id="edge1" class="edge">
<title>Node0x60000209c060&#45;&gt;Node0x60000209c080</title>
<path fill="none" stroke="black" stroke-width="1.1" d="M134.78,-372.28C128.39,-351.21 117.53,-315.4 110.31,-291.6"/>
<polygon fill="black" stroke="black" stroke-width="1.1" points="112.57,-290.62 108.2,-284.63 107.88,-292.04 112.57,-290.62"/>
<text text-anchor="middle" x="132" y="-324.8" font-family="Arial" font-size="14.00">да</text>
</g>
<!-- Node0x60000209c0e0 -->
<g id="node5" class="node">
<title>Node0x60000209c0e0</title>
<polygon fill="#ffffff" stroke="#000000" stroke-width="2" points="152,-248.5 152,-284.5 206,-284.5 206,-248.5 152,-248.5"/>
<text text-anchor="middle" x="179" y="-264.6" font-family="Arial" font-size="8.00" fill="#000000">фачит</text>
</g>
<!-- Node0x60000209c060&#45;&gt;Node0x60000209c0e0 -->
<g id="edge4" class="edge">
<title>Node0x60000209c060&#45;&gt;Node0x60000209c0e0</title>
<path fill="none" stroke="black" stroke-width="1.1" d="M145.51,-372.28C152.24,-351.21 163.69,-315.4 171.29,-291.6"/>
<polygon fill="black" stroke="black" stroke-width="1.1" points="173.73,-292.05 173.52,-284.63 169.06,-290.55 173.73,-292.05"/>
<text text-anchor="middle" x="173" y="-324.8" font-family="Arial" font-size="14.00">нет</text>
</g>
<!-- Node0x60000209c0a0 -->
<g id="node3" class="node">
<title>Node0x60000209c0a0</title>
<polygon fill="#ffffff" stroke="#000000" stroke-width="2" points="0,-124.5 0,-160.5 54,-160.5 54,-124.5 0,-124.5"/>
<text text-anchor="middle" x="27" y="-140.6" font-family="Arial" font-size="8.00" fill="#000000">полторашка</text>
</g>
<!-- Node0x60000209c080&#45;&gt;Node0x60000209c0a0 -->
<g id="edge2" class="edge">
<title>Node0x60000209c080&#45;&gt;Node0x60000209c0a0</title>
<path fill="none" stroke="black" stroke-width="1.1" d="M92.27,-248.28C78.98,-226.93 56.26,-190.48 41.44,-166.69"/>
<polygon fill="black" stroke="black" stroke-width="1.1" points="43.45,-165.28 37.67,-160.63 39.29,-167.87 43.45,-165.28"/>
<text text-anchor="middle" x="78" y="-200.8" font-family="Arial" font-size="14.00">да</text>
</g>
<!-- Node0x60000209c0c0 -->
<g id="node4" class="node">
<title>Node0x60000209c0c0</title>
<polygon fill="#ffffff" stroke="#000000" stroke-width="2" points="76,-124.5 76,-160.5 130,-160.5 130,-124.5 76,-124.5"/>
<text text-anchor="middle" x="103" y="-140.6" font-family="Arial" font-size="8.00" fill="#000000">матроскин</text>
</g>
<!-- Node0x60000209c080&#45;&gt;Node0x60000209c0c0 -->
<g id="edge3" class="edge">
<title>Node0x60000209c080&#45;&gt;Node0x60000209c0c0</title>
<path fill="none" stroke="black" stroke-width="1.1" d="M103,-248.28C103,-227.3 103,-191.71 103,-167.91"/>
<polygon fill="black" stroke="black" stroke-width="1.1" points="105.45,-167.63 103,-160.63 100.55,-167.63 105.45,-167.63"/>
<text text-anchor="middle" x="114" y="-200.8" font-family="Arial" font-size="14.00">нет</text>
</g>
<!-- Node0x60000209c100 -->
<g id="node6" class="node">
<title>Node0x60000209c100</title>
<polygon fill="#ffffff" stroke="#000000" stroke-width="2" points="152,-124.5 152,-160.5 206,-160.5 206,-124.5 152,-124.5"/>
<text text-anchor="middle" x="179" y="-140.6" font-family="Arial" font-size="8.00" fill="#000000">младший</text>
</g>
<!-- Node0x60000209c0e0&#45;&gt;Node0x60000209c100 -->
<g id="edge5" class="edge">
<title>Node0x60000209c0e0&#45;&gt;Node0x60000209c100</title>
<path fill="none" stroke="black" stroke-width="1.1" d="M179,-248.28C179,-227.3 179,-191.71 179,-167.91"/>
<polygon fill="black" stroke="black" stroke-width="1.1" points="181.45,-167.63 179,-160.63 176.55,-167.63 181.45,-167.63"/>
<text text-anchor="middle" x="187" y="-200.8" font-family="Arial" font-size="14.00">да</text>
</g>
<!-- Node0x60000209c160 -->
<g id="node9" class="node">
<title>Node0x60000209c160</title>
<polygon fill="#ffffff" stroke="#000000" stroke-width="2" points="228.5,-124.5 228.5,-160.5 283.5,-160.5 283.5,-124.5 228.5,-124.5"/>
<text text-anchor="middle" x="256" y="-140.6" font-family="Arial" font-size="8.00" fill="#000000">петрович аю</text>
</g>
<!-- Node0x60000209c0e0&#45;&gt;Node0x60000209c160 -->
<g id="edge8" class="edge">
<title>Node0x60000209c0e0&#45;&gt;Node0x60000209c160</title>
<path fill="none" stroke="black" stroke-width="1.1" d="M189.87,-248.28C203.34,-226.93 226.35,-190.48 241.37,-166.69"/>
<polygon fill="black" stroke="black" stroke-width="1.1" points="243.52,-167.86 245.19,-160.63 239.38,-165.25 243.52,-167.86"/>
<text text-anchor="middle" x="234" y="-200.8" font-family="Arial" font-size="14.00">нет</text>
</g>
<!-- Node0x60000209c120 -->
<g id="node7" class="node">
<title>Node0x60000209c120</title>
<polygon fill="#ffffff" stroke="#000000" stroke-width="2" points="103,-0.5 103,-36.5 169,-36.5 169,-0.5 103,-0.5"/>
<text text-anchor="middle" x="136" y="-16.6" font-family="Arial" font-size="8.00" fill="#000000">умнов младший</text>
</g>
<!-- Node0x60000209c100&#45;&gt;Node0x60000209c120 -->
<g id="edge6" class="edge">
<title>Node0x60000209c100&#45;&gt;Node0x60000209c120</title>
<path fill="none" stroke="black" stroke-width="1.1" d="M172.93,-124.28C165.47,-103.12 152.78,-67.1 144.39,-43.3"/>
<polygon fill="black" stroke="black" stroke-width="1.1" points="146.68,-42.42 142.04,-36.63 142.06,-44.05 146.68,-42.42"/>
<text text-anchor="middle" x="169" y="-76.8" font-family="Arial" font-size="14.00">да</text>
</g>
<!-- Node0x60000209c140 -->
<g id="node8" class="node">
<title>Node0x60000209c140</title>
<polygon fill="#ffffff" stroke="#000000" stroke-width="2" points="191,-0.5 191,-36.5 255,-36.5 255,-0.5 191,-0.5"/>
<text text-anchor="middle" x="223" y="-16.6" font-family="Arial" font-size="8.00" fill="#000000">умнов старший</text>
</g>
<!-- Node0x60000209c100&#45;&gt;Node0x60000209c140 -->
<g id="edge7" class="edge">
<title>Node0x60000209c100&#45;&gt;Node0x60000209c140</title>
<path fill="none" stroke="black" stroke-width="1.1" d="M185.21,-124.28C192.84,-103.12 205.83,-67.1 214.42,-43.3"/>
<polygon fill="black" stroke="black" stroke-width="1.1" points="216.75,-44.05 216.82,-36.63 212.14,-42.39 216.75,-44.05"/>
<text text-anchor="middle" x="215" y="-76.8" font-family="Arial" font-size="14.00">нет</text>
</g>
</g>
</svg>
